/* XPM */
static char * answer_empty_xpm[] = {
"27 27 6 1",
" 	c None",
".	c #000000",
"+	c #B22222",
"@	c #FF0000",
"#	c #FFFFFF",
"$	c #708090",
"          @@@@@@           ",
"        @@++++++@@         ",
"      @@@+++++++++@@       ",
"     @@+++......+++@+      ",
"    @@++..$$$$$$.+++@+     ",
"   @@+++$$$$     $+++++    ",
"  @@++@++$        #++@+.   ",
"  @++++@++          ++++$  ",
" @@+.$++@++          +++.  ",
" @++.$$++@++         @++.$ ",
"@++.$$  ++@++         @++. ",
"@++.$$   ++@++        @++.$",
"@++.$     ++@++       @++.$",
"@++.$      ++@++      @++.$",
"@++.$       ++@++     @++.$",
"@++.$        ++@++    @++.$",
" @++.         ++@++  @++.$$",
" @+++$         ++@++ @+..$$",
"  @+++          ++@+@++.$$ ",
"  @@+++          ++@++..$$ ",
"   +@+++          @++..$$  ",
"    ++@++@      @@++..$$$  ",
"     +++++@@@@@@+++..$$$   ",
"      .+++++++++++..$$$    ",
"       $..++++++..$$$$     ",
"         $......$$$$       ",
"           $$$$$$$         "};
