/* XPM */
static char * answer_good_xpm[] = {
"23 23 4 1",
" 	c None",
".	c #32CD32",
"+	c #00FF00",
"@	c #2E8B57",
"                    ++ ",
"                   ++.@",
"                  ++..@",
"                 ++...@",
"                ++...@@",
"               ++...@@@",
"              ++...@@@ ",
"             ++...@@@  ",
" ++++       ++...@@@   ",
"++...+     ++...@@@    ",
"+.....@   ++....@@     ",
"+.....@@ ++....@@@     ",
"+.....@@++....@@@      ",
"+.....@++....@@@       ",
"+.....++....@@@        ",
"+..........@@@         ",
"+.........@@@          ",
"+........@@@           ",
"+.......@@@            ",
"+......@@@             ",
" +....@@@              ",
"  +..@@@               ",
"   @@@@                "};
