/* XPM */
static char * answer_bad_xpm[] = {
"25 22 3 1",
" 	c None",
".	c #B22222",
"+	c #FF0000",
"   ++                    ",
"  +++++                  ",
" +++++++            ++++.",
"+++++++++         ++++.. ",
" ..+++++++     +++++..   ",
"   ..+++++++ +++++..     ",
"     ..+++++++++..       ",
"       .+++++++..        ",
"        +++++++.         ",
"       +++++++++         ",
"      +++++++++++        ",
"     ++++++...++++       ",
"    ++++++..  .++++      ",
"   ++++++..    .+++      ",
"  ++++++..      .+++     ",
" ++++++..        .++     ",
" +++++..          .++    ",
" +++++.            .++   ",
" .+++..             ++   ",
"  .++.              .++  ",
"   ...               .+  ",
"                      .. "};
