/* XPM */
static char * answer_unknown_xpm[] = {
"13 24 5 1",
" 	c None",
".	c #1E90FF",
"+	c #000080",
"@	c #BFBFBF",
"#	c #0000FF",
"   ......    ",
"  .#######   ",
" .##+++####  ",
".##++   #### ",
".##+    .###+",
"####+   .###+",
"####+   .###+",
" ##++  .####+",
"  ++   .###++",
"      .###++ ",
"      .##++  ",
"      .#++   ",
"     .##+    ",
"     .#++    ",
"     .++     ",
"     .+      ",
"     .+      ",
"             ",
"    ...      ",
"   ..###     ",
"   .####+    ",
"   .####+    ",
"    ###++    ",
"     +++     "};
